#!OML:ASF H:\Terrain\Patient Classification 1\Walking\liu\liu.ASF
:FULLY-SPECIFIED
:DEGREES
1
root 8.16841 15.79 -33.8039 8.37386 -3.78154 -4.9379
lowerback -2.54987 1.46163 0.68131
upperback 0.387622 1.85678 4.06798
thorax 1.71498 0.915647 3.88028
lowerneck -21.9474 -4.19808 -11.6225
upperneck 17.0373 -4.85409 12.6326
head 9.61772 -1.62456 5.67918
rclavicle -6.55989e-015 7.15625e-015
rhumerus -25.8011 28.4173 -85.462
rradius 41.7167
rwrist -20.7155
rhand -32.1234 -21.1854
rfingers 7.12502
rthumb -5.36788 -51.0974
lclavicle -6.55989e-015 7.15625e-015
lhumerus -51.4424 -15.6514 99.3906
lradius 25.6082
lwrist 4.1685
lhand -11.2154 -30.6596
lfingers 7.12502
lthumb 14.813 -1.20902
rfemur -2.12894 5.7705 30.1299
rtibia 22.4173
rfoot -23.9728 3.47742
rtoes -10.3436
lfemur -46.2775 8.32577 -16.6373
ltibia 41.4246
lfoot -12.2911 8.76718
ltoes -15.5994
2
root 8.1765 15.7751 -33.5711 8.45787 -4.26875 -4.92865
lowerback -2.60462 1.65062 0.638222
upperback 0.444884 2.1082 3.98356
thorax 1.79058 1.04043 3.82951
lowerneck -21.892 -4.27667 -11.9649
upperneck 16.9775 -4.89956 12.8388
head 9.60868 -1.64834 5.80502
rclavicle 5.86415e-015 7.95139e-016
rhumerus -24.5905 29.2587 -85.0925
rradius 42.2801
rwrist -20.8213
rhand -32.0211 -21.0572
rfingers 7.12502
rthumb -5.26915 -50.9717
lclavicle 5.86415e-015 7.95139e-016
lhumerus -51.5367 -14.2511 98.228
lradius 24.5259
lwrist 2.49921
lhand -13.5438 -29.2866
lfingers 7.12502
lthumb 12.5689 0.315365
rfemur -0.710949 5.78707 30.0117
rtibia 21.1745
rfoot -23.4743 3.61284
rtoes -11.4415
lfemur -46.3091 7.97086 -16.2266
ltibia 38.0107
lfoot -11.724 8.20226
ltoes -14.4124
3
root 8.18103 15.7625 -33.3388 8.63593 -4.74549 -5.04742
lowerback -2.67045 1.93697 0.667396
upperback 0.419203 2.48973 3.92915
thorax 1.78132 1.2322 3.77297
lowerneck -21.6623 -4.48348 -12.4636
upperneck 16.7894 -5.12676 13.2395
head 9.56148 -1.75182 5.99705
rclavicle 2.70347e-014 5.56597e-015
rhumerus -23.5432 29.7742 -84.5914
rradius 42.854
rwrist -20.9397
rhand -31.618 -21.466
rfingers 7.12502
rthumb -4.87987 -51.3898
lclavicle 2.70347e-014 5.56597e-015
lhumerus -51.7841 -12.9603 97.0643
lradius 23.6341
lwrist 0.924442
lhand -13.5391 -27.8438
lfingers 7.12502
lthumb 12.5735 1.75782
rfemur 0.458558 5.93443 30.0084
rtibia 20.2451
rfoot -22.7505 3.67187
rtoes -14.0538
lfemur -46.4087 7.41507 -15.5196
ltibia 34.7936
lfoot -11.3513 8.03706
ltoes -15.2135
4
root 8.19072 15.7361 -33.1041 8.84189 -5.19686 -5.23859
lowerback -2.81568 2.10174 0.666197
upperback 0.454542 2.70406 3.93401
thorax 1.88607 1.33832 3.79447
lowerneck -21.6422 -4.46411 -12.4467
upperneck 16.5802 -5.12652 13.4088
head 9.49086 -1.73335 6.04968
rclavicle 9.93923e-017 -1.59028e-015
rhumerus -22.3439 30.6474 -84.081
rradius 43.4379
rwrist -21.012
rhand -31.6866 -22.2197
rfingers 7.12502
rthumb -4.94608 -52.142
lclavicle 9.93923e-017 -1.59028e-015
lhumerus -52.2005 -11.6109 95.9277
lradius 23.2023
lwrist 0.271987
lhand -12.6427 -26.5496
lfingers 7.12502
lthumb 13.4376 2.99698
rfemur 1.77626 6.02075 30.0287
rtibia 19.0921
rfoot -22.5234 4.08464
rtoes -13.8454
lfemur -46.3862 6.73054 -14.5825
ltibia 31.5543
lfoot -11.5511 7.90479
ltoes -15.6676
5
root 8.20506 15.7116 -32.8655 8.93316 -5.56194 -5.47982
lowerback -2.93841 2.18718 0.778688
upperback 0.541364 2.80584 3.98113
thorax 2.04135 1.38829 3.79279
lowerneck -21.6672 -4.35673 -12.2273
upperneck 16.4721 -4.99372 13.2279
head 9.42646 -1.6757 5.96131
rclavicle 3.79679e-014 -2.38542e-015
rhumerus -21.1986 31.5688 -83.5899
rradius 44.0137
rwrist -20.9838
rhand -31.777 -23.4694
rfingers 7.12502
rthumb -5.03344 -53.3897
lclavicle 3.79679e-014 -2.38542e-015
lhumerus -52.6082 -10.2716 94.9018
lradius 22.7756
lwrist 0.231424
lhand -11.5534 -25.7538
lfingers 7.12502
lthumb 14.4873 3.7204
rfemur 3.24695 5.79615 30.046
rtibia 17.8979
rfoot -22.451 4.82454
rtoes -12.2961
lfemur -46.1963 5.97863 -13.4876
ltibia 28.5994
lfoot -12.516 7.59186
ltoes -13.7625
6
root 8.22158 15.6873 -32.6247 8.99337 -5.71256 -5.99199
lowerback -3.04014 2.34067 1.29417
upperback 0.618709 2.98089 4.1195
thorax 2.18701 1.47952 3.66235
lowerneck -21.4204 -4.41367 -12.281
upperneck 16.2691 -5.03213 13.0792
head 9.31409 -1.72127 5.9016
rclavicle 6.75868e-015 -2.38542e-015
rhumerus -20.194 32.1658 -82.9409
rradius 44.4664
rwrist -21.1235
rhand -32.3795 -23.7364
rfingers 7.12502
rthumb -5.61514 -53.6421
lclavicle 6.75868e-015 -2.38542e-015
lhumerus -52.8153 -9.14416 94.0242
lradius 21.9398
lwrist 0.061889
lhand -10.536 -25.0562
lfingers 7.12502
lthumb 15.4674 4.34502
rfemur 4.75972 5.58123 30.3823
rtibia 16.6322
rfoot -21.7835 5.30498
rtoes -13.2559
lfemur -46.0618 5.14504 -12.073
ltibia 26.0007
lfoot -13.0989 7.70908
ltoes -11.7553
7
root 8.23911 15.6618 -32.3809 9.16777 -5.86037 -6.33673
lowerback -3.25224 2.57474 1.62768
upperback 0.684419 3.26586 4.22288
thorax 2.37169 1.62419 3.61001
lowerneck -21.1923 -4.60326 -12.6927
upperneck 15.9461 -5.212 13.3018
head 9.20725 -1.81619 6.01555
rclavicle 3.21037e-014 3.26007e-014
rhumerus -19.0883 32.6594 -82.0235
rradius 44.8598
rwrist -21.2561
rhand -33.354 -23.984
rfingers 7.12502
rthumb -6.55597 -53.8626
lclavicle 3.21037e-014 3.26007e-014
lhumerus -52.6034 -7.49711 92.4621
lradius 20.6511
lwrist -1.86676
lhand -9.9996 -25.0074
lfingers 7.12502
lthumb 15.984 4.35312
rfemur 6.2596 5.5984 30.5665
rtibia 15.0823
rfoot -20.3953 5.47379
rtoes -15.4291
lfemur -46.1381 4.17473 -10.766
ltibia 23.8958
lfoot -12.9223 8.51634
ltoes -12.8471
